HIERARCHY
ROOT ui
{
	 OFFSET 0 0 0
	 CHANNELS 3 XPosition YPosition Z Position
	 EndSite
	 {
	 OFFSET 0 -1 0
	 }
}
ROOT li
{
	 OFFSET 0 0 0
	 CHANNELS 3 XPosition YPosition Z Position
	 EndSite
	 {
	 OFFSET 0 -1 0
	 }
}
ROOT ul
{
	 OFFSET 0 0 0
	 CHANNELS 3 XPosition YPosition Z Position
	 EndSite
	 {
	 OFFSET 0 -1 0
	 }
}
ROOT ll
{
	 OFFSET 0 0 0
	 CHANNELS 3 XPosition YPosition Z Position
	 EndSite
	 {
	 OFFSET 0 -1 0
	 }
}
ROOT tt
{
	 OFFSET 0 0 0
	 CHANNELS 3 XPosition YPosition Z Position
	 EndSite
	 {
	 OFFSET 0 -1 0
	 }
}
ROOT tb
{
	 OFFSET 0 0 0
	 CHANNELS 3 XPosition YPosition Z Position
	 EndSite
	 {
	 OFFSET 0 -1 0
	 }
}
ROOT td
{
	 OFFSET 0 0 0
	 CHANNELS 3 XPosition YPosition Z Position
	 EndSite
	 {
	 OFFSET 0 -1 0
	 }
}
ROOT v
{
	 OFFSET 0 0 0
	 CHANNELS 3 XPosition YPosition Z Position
	 EndSite
	 {
	 OFFSET 0 -1 0
	 }
}
ROOT bn
{
	 OFFSET 0 0 0
	 CHANNELS 3 XPosition YPosition Z Position
	 EndSite
	 {
	 OFFSET 0 -1 0
	 }
}
MOTION
Frames: 21
Frame Time: 0.002
-0.00432905912399292	-1.878090053796768E-4	0		0.4079712219238281	-2.30343896484375	0		-1.06772607421875	-0.007662403106689453	0		-0.8438325805664062	-2.28091552734375	0		1.438460205078125	-0.591884765625	0		3.071925048828125	-0.16239181518554688	0		4.41291259765625	-0.08278153228759766	0		5.5223544921875	0.020739198684692383	0		-0.056095569610595704	5.95924609375	0		
-0.07961226654052735	-4.877550005912781E-4	0		0.35685137939453127	-2.3022236328125	0		-1.067877685546875	-0.0026069929599761964	0		-0.8400081787109375	-2.2829306640625	0		1.4411708984375	-0.5947532958984375	0		3.069958251953125	-0.19607925415039062	0		4.42552978515625	-0.0886973876953125	0		5.518138671875	0.023241670608520507	0		-0.06491114807128906	5.94852978515625	0		
0.0029341349601745607	-0.003128022909164429	0		0.4154666442871094	-2.30733349609375	0		-1.056399658203125	-0.007804530143737793	0		-0.836339599609375	-2.28494775390625	0		1.4467882080078125	-0.5946873779296875	0		3.079678955078125	-0.1900092315673828	0		4.42012158203125	-0.0882352752685547	0		5.52372216796875	0.023532129287719725	0		-0.0596541519165039	5.9485126953125	0		
-0.06866097259521485	-5.247700214385987E-4	0		0.3680533752441406	-2.302213134765625	0		-1.0510325927734374	-0.007876659870147705	0		-0.8288082885742187	-2.283050537109375	0		1.4521868896484376	-0.5946246948242188	0		3.11392333984375	-0.19646690368652345	0		4.4296181640625	-0.08209792327880859	0		5.52904541015625	0.021814760208129884	0		-0.04037964248657227	5.95919775390625	0		
0.01339738655090332	-0.003159449100494385	0		0.40226141357421874	-2.302819091796875	0		-1.119898681640625	-0.005395904064178467	0		-0.8944324340820312	-2.27462255859375	0		1.4603758544921874	-0.5916304931640625	0		3.090623291015625	-0.16772184753417968	0		4.43471875	-0.08188726043701172	0		5.54413818359375	0.021872182846069337	0		-0.16804263305664063	5.93895166015625	0		
-0.05166001510620117	0.0052865447998046875	0		0.3822623596191406	-2.297295654296875	0		-1.037072021484375	-0.0040995898246765135	0		-0.8166635131835938	-2.281209228515625	0		1.4651849365234375	-0.5915781860351562	0		3.111927001953125	-0.19094216918945311	0		4.434671875	-0.07358978271484375	0		5.543107421875	0.031243446350097657	0		-0.03109385108947754	5.9591591796875	0		
-0.054356876373291015	-5.859509706497193E-4	0		0.4267605285644531	-2.29913134765625	0		-1.0426217041015624	-0.002954150915145874	0		-0.860958740234375	-2.272241455078125	0		1.466575927734375	-0.5944683837890625	0		3.130630859375	-0.17811863708496095	0		4.45080712890625	-0.08766065979003906	0		5.54338818359375	0.02455364227294922	0		-0.026927812576293945	5.95914013671875	0		
-0.05031203842163086	-6.053739786148071E-4	0		0.403943603515625	-2.296569580078125	0		-1.0444713134765624	0.002111372947692871	0		-0.82193603515625	-2.27802099609375	0		1.4706441650390625	-0.5944277954101562	0		3.098607177734375	-0.1812613525390625	0		4.45485546875	-0.08750231170654296	0		5.547431640625	0.024755098342895507	0		-0.03928136444091797	5.95145703125	0		
-0.04666620635986328	-6.236810088157653E-4	0		0.417500732421875	-2.3047783203125	0		-1.1029993896484376	-0.005649784088134766	0		-0.8791978149414063	-2.276797119140625	0		1.4801845703125	-0.6005167236328125	0		3.10536279296875	-0.17623359680175782	0		4.45850439453125	-0.08736388397216797	0		5.55686767578125	0.014808890342712402	0		-0.019679651260375977	5.9591044921875	0		
-0.03936214065551758	0.0022756900787353515	0		0.40679403686523435	-2.305490478515625	0		-1.0257933349609376	-0.008235072135925293	0		-0.800966064453125	-2.28139599609375	0		1.4913809814453125	-0.6036537475585938	0		3.144498779296875	-0.18190359497070313	0		4.4518349609375	-0.0830400390625	0		5.56841943359375	0.02978907012939453	0		-4.0983501076698306E-4	5.96875390625	0		
-0.033454055786132815	0.005197618961334229	0		0.4298579406738281	-2.29791162109375	0		-1.0928277587890625	-0.0018226970434188842	0		-0.8668628540039063	-2.270999755859375	0		1.483493408203125	-0.5914063110351563	0		3.126727783203125	-0.1634100341796875	0		4.4687216796875	-0.08123769378662109	0		5.56712109375	0.02299380111694336	0		-0.13113526916503906	5.94950439453125	0		
-0.03810927963256836	-6.697869896888733E-4	0		0.44538543701171873	-2.297186767578125	0		-1.0204786987304688	-0.008305891036987305	0		-0.8074281616210938	-2.275209716796875	0		1.482910400390625	-0.5943297119140625	0		3.11976513671875	-0.18417523193359375	0		4.45123681640625	-0.07875537109375	0		5.55542529296875	0.015373884201049804	0		-0.011552183151245118	5.959060546875	0		
-0.03599373626708984	-6.83247983455658E-4	0		0.42836724853515623	-2.304798828125	0		-1.092326416015625	-0.00579831314086914	0		-0.8314037475585937	-2.280692626953125	0		1.485033203125	-0.5943246459960938	0		3.1218828125	-0.18415029907226563	0		4.4581865234375	-0.08681612396240235	0		5.56753857421875	0.015221243858337402	0		-0.010446728706359864	5.9620673828125	0		
0.04276680374145508	-0.003291934013366699	0		0.43017919921875	-2.30481005859375	0		-1.0165652465820312	-0.00835136604309082	0		-0.7956820678710937	-2.2854150390625	0		1.4868345947265624	-0.5943292846679687	0		3.129535400390625	-0.1912676544189453	0		4.46410791015625	-0.08088661193847656	0		5.55933837890625	0.0154488525390625	0		-0.007748025894165039	5.95903369140625	0		
-0.032677391052246096	-7.126399874687195E-4	0		0.40884814453125	-2.297350341796875	0		-1.0849281005859375	-0.00191812801361084	0		-0.8629617919921875	-2.275003173828125	0		1.491414794921875	-0.5914071655273437	0		3.130510009765625	-0.16926640319824218	0		4.47662451171875	-0.08112892150878906	0		5.5691865234375	0.03126546287536621	0		-0.1386787109375	5.93875732421875	0		
0.05268617630004883	0.0025288329124450682	0		0.46299850463867187	-2.303467041015625	0		-1.0096867065429687	-0.004462368011474609	0		-0.788815673828125	-2.281527099609375	0		1.4926895751953124	-0.5914327392578125	0		3.13470361328125	-0.17336233520507813	0		4.47790185546875	-0.08117099761962891	0		5.57048583984375	0.03221712875366211	0		-0.0049196710586547855	5.9590009765625	0		
-0.030325181961059572	-7.489609718322754E-4	0		0.4002898864746094	-2.291167236328125	0		-1.086657958984375	-0.005853628158569336	0		-0.8257576293945312	-2.28075048828125	0		1.4937574462890626	-0.5914682006835937	0		3.168768798828125	-0.17409933471679687	0		4.4748515625	-0.08715409088134765	0		5.57737255859375	0.023015737533569336	0		-0.003781879901885986	5.9589814453125	0		
0.047542243957519534	-0.003367564916610718	0		0.4520040283203125	-2.299251708984375	0		-1.0117899780273438	-0.008394129753112793	0		-0.7987682495117188	-2.27530078125	0		1.4915916748046876	-0.5944497680664063	0		3.1325751953125	-0.17840036010742188	0		4.47092236328125	-0.0791413345336914	0		5.5635087890625	0.034218719482421875	0		-0.018950103759765625	5.95129296875	0		
-0.028653301239013673	-7.945950031280518E-4	0		0.40865478515625	-2.302370361328125	0		-1.0849862060546875	-0.005863698959350586	0		-0.827203369140625	-2.282706787109375	0		1.4923477783203125	-0.594502197265625	0		3.13744189453125	-0.17356752014160157	0		4.47035595703125	-0.09522509765625	0		5.56904736328125	0.022988933563232422	0		-0.0019093559980392456	5.95893505859375	0		
0.053029758453369144	-5.049269795417786E-4	0		0.449130615234375	-2.309236083984375	0		-1.0802451171875	-0.0019512369632720948	0		-0.8564002075195313	-2.27309423828125	0		1.5098863525390624	-0.5999137573242187	0		3.148053466796875	-0.17586982727050782	0		4.46726318359375	-0.08326830291748047	0		5.58384912109375	0.029548925399780275	0		0.015082979202270507	5.9685732421875	0		
-0.020293514251708986	0.005003825187683105	0		0.4179923095703125	-2.292613525390625	0		-1.0057044677734375	-0.004493688106536865	0		-0.7809561767578125	-2.277662353515625	0		1.499701416015625	-0.5877527465820312	0		3.127006103515625	-0.15752073669433594	0		4.47400390625	-0.07553145599365234	0		5.569638671875	0.03969539642333984	0		-0.11762466430664062	5.94931591796875	0		
